# xmcd
#
# Track frame offsets:
#  150
#  13412
#  25660
#  38810
#  51982
#  63817
#  79905
#  90552
#
# Disc length: 1371 seconds
#
# Revision: 0
# Processed by: cddbd v1.5.2PL0 Copyright (c) Steve Scherf et al.
# Submitted via: AltoMP3_Maker 3.0
#
DISCID=5d055908
DTITLE=Varios - Temas del Oeste [CD 2)
DYEAR=1900
DGENRE=
TTITLE0=Estrella errante
TTITLE1=El gran Chaparral
TTITLE2=Johnny Juma
TTITLE3=Los 7 magníficos
TTITLE4=El bueno, el feo y el malo
TTITLE5=El valle de Red River
TTITLE6=Duelo en el OK Corral
TTITLE7=Rio sin retorno
EXTD=
EXTT0=
EXTT1=
EXTT2=
EXTT3=
EXTT4=
EXTT5=
EXTT6=
EXTT7=
PLAYORDER=
